PathFileType	4	(x/y/z)	TRC_MarkerData\Passive\Passive_Pref0006.trc
DataRate	CameraRate	NumFrames	NumMarkers	Units	OrigDataRate	OrigDataStartFrame	OrigNumFrames
240	240	9	49	mm	240	1	313
Frame#	Time	R_AC			L_AC			HEAD			STERN			C7			R_IC			L_ASIS			R_ASIS			L_GT			R_GT			L_PSIS			R_PSIS			SACRAL			L_LAT_KNEE			L_MED_KNEE			R_LAT_KNEE			R_MED_KNEE			L_LAT_ANK			L_MED_ANK			R_LAT_ANK			R_MED_ANK			L_THIGH_PROX_POST			L_THIGH_PROX_ANT			L_THIGH_DIST_ANT			L_THIGH_DIST_POST			R_THIGH_PROX_POST			R_THIGH_PROX_ANT			R_THIGH_DIST_ANT			R_THIGH_DIST_POST			L_SHANK_PROX_POST			L_SHANK_PROX_ANT			L_SHANK_DIST_ANT			L_SHANK_DIST_POST			R_SHANK_PROX_POST			R_SHANK_PROX_ANT			R_SHANK_DIST_ANT			R_SHANK_DIST_POST			L_HEEL_LAT			L_HEEL_SUP			L_HEEL_MED			R_HEEL_LAT			R_HEEL_SUP			R_HEEL_MED			L_1ST_MET			L_5TH_MET			L_TOE			R_1ST_MET			R_5TH_MET			R_TOE			
		X1	Y1	Z1	X2	Y2	Z2	X3	Y3	Z3	X4	Y4	Z4	X5	Y5	Z5	X6	Y6	Z6	X7	Y7	Z7	X8	Y8	Z8	X9	Y9	Z9	X10	Y10	Z10	X11	Y11	Z11	X12	Y12	Z12	X13	Y13	Z13	X14	Y14	Z14	X15	Y15	Z15	X16	Y16	Z16	X17	Y17	Z17	X18	Y18	Z18	X19	Y19	Z19	X20	Y20	Z20	X21	Y21	Z21	X22	Y22	Z22	X23	Y23	Z23	X24	Y24	Z24	X25	Y25	Z25	X26	Y26	Z26	X27	Y27	Z27	X28	Y28	Z28	X29	Y29	Z29	X30	Y30	Z30	X31	Y31	Z31	X32	Y32	Z32	X33	Y33	Z33	X34	Y34	Z34	X35	Y35	Z35	X36	Y36	Z36	X37	Y37	Z37	X38	Y38	Z38	X39	Y39	Z39	X40	Y40	Z40	X41	Y41	Z41	X42	Y42	Z42	X43	Y43	Z43	X44	Y44	Z44	X45	Y45	Z45	X46	Y46	Z46	X47	Y47	Z47	X48	Y48	Z48	X49	Y49	Z49	

1	0	-890.63	1482.7	487.21	-931.25	1503.4	78.508	-893.78	1821.8	298.49	-835.82	1464.1	283.25	-973.29	1541	287.67	NaN	NaN	NaN	-865.39	1006.9	172.69	-876.58	1019	442	-938.97	919.12	115.57	-982.43	951.37	479.46	-1067.3	1010.4	235.54	-1077.7	1018.4	342.27	-1085.5	980.1	288.88	-735.64	572.54	166.37	-738.74	584.64	306.58	-1126.2	560.99	443.09	-1113	555.5	310.89	-578.36	133.59	180.86	-581.94	126.72	268.66	-1354.9	139.35	373.32	-1300.6	161.66	281.94	-868.65	746.88	134.82	-810.96	775.5	141.26	-775.42	713.85	158.25	-832.29	684.45	148.19	-1056.9	790.02	475.37	-991.9	769.49	481.48	-1019.2	698.72	470.06	-1084.5	722.86	460.18	-715.93	471.35	184.45	-659.06	499.63	190.78	-637.86	454.78	198.28	-689.75	430.45	181.37	-1246.3	404.84	437.83	-1182.4	384.89	429.58	-1211.6	317.97	413.57	-1276.3	338.13	420.16	-589.55	39.282	182.37	-618.83	53.925	213.76	-597.8	33.848	249.41	-1433.9	121.34	338.37	-1420	153.96	309.55	-1411.1	125.15	278.47	-405.72	145.59	292.75	-417.7	139.17	181.65	-370.75	183.27	264.02	-1213.3	52.603	298.73	-1244.4	39.15	405.28	-1171	42.84	343.21
2	0.00418	-885.46	1482.5	486.53	-926.19	1502.9	77.888	-888.81	1821.5	297.89	-830.73	1463.8	282.66	-968.31	1540.6	287.02	NaN	NaN	NaN	-859.58	1006.4	172.49	-871.27	1018.6	441.78	-933.42	918.42	115.4	-977.27	951.04	479.05	-1061.6	1010	235	-1072.1	1017.9	341.72	-1080	979.7	288.31	-732.36	570.93	166.4	-735.53	583.05	306.6	-1121.3	560.79	442.85	-1107.5	554.98	310.77	-576.61	132.22	180.98	-580.34	125.46	268.91	-1353.3	140.89	373.35	-1298.6	162.77	282.16	-864.11	745.47	134.6	-806.43	773.88	141.04	-771.3	712.04	158.11	-828.33	683.07	148.19	-1051.9	789.81	474.81	-986.87	769.21	481.15	-1014.2	698.45	469.76	-1079.5	722.6	459.65	-713.02	469.66	184.5	-656.07	497.76	190.87	-635.03	452.83	198.38	-687	428.67	181.44	-1242.5	405.6	437.63	-1178.7	385.07	429.53	-1208.5	318.41	413.6	-1273.1	339.13	419.98	-588.69	38.308	182.57	-617.73	53.351	213.95	-597	33.114	249.61	-1432.4	123.91	338.19	-1418.1	156.41	309.37	-1409.3	127.44	278.31	-403.98	142.75	293.02	-415.94	136.34	181.94	-368.73	180.15	264.29	-1213.1	52.544	298.69	-1244.3	39.271	405.36	-1171	42.783	343.17
3	0.00836	-880.08	1482.3	485.81	-920.91	1502.5	77.235	-883.62	1821.1	297.27	-825.42	1463.5	282.04	-963.13	1540.1	286.32	NaN	NaN	NaN	-853.51	1005.9	172.27	-865.72	1018.2	441.54	-927.61	917.7	115.21	-971.86	950.7	478.63	-1055.7	1009.5	234.44	-1066.3	1017.5	341.15	-1074.2	979.29	287.72	-728.92	569.3	166.43	-732.18	581.44	306.62	-1116.1	560.57	442.63	-1101.8	554.41	310.65	-574.8	130.84	181.09	-578.69	124.19	269.16	-1351.6	142.51	373.39	-1296.5	163.94	282.4	-859.4	744.06	134.38	-801.67	772.23	140.81	-766.99	710.19	157.96	-824.16	681.67	148.19	-1046.6	789.59	474.22	-981.61	768.92	480.8	-1009	698.16	469.45	-1074.2	722.33	459.1	-709.98	467.97	184.54	-652.94	495.86	190.95	-632.07	450.85	198.49	-684.12	426.87	181.51	-1238.4	406.39	437.44	-1174.9	385.25	429.51	-1205.2	318.87	413.65	-1269.6	340.18	419.81	-587.82	37.335	182.76	-616.61	52.796	214.13	-596.2	32.393	249.79	-1430.7	126.62	338.01	-1416.2	158.99	309.2	-1407.5	129.86	278.15	-402.2	139.81	293.29	-414.14	133.43	182.24	-366.66	176.92	264.58	-1212.8	52.48	298.64	-1244.1	39.402	405.46	-1170.9	42.726	343.12
4	0.01254	-874.54	1482.1	485.07	-915.44	1502	76.551	-878.25	1820.8	296.62	-819.93	1463.3	281.39	-957.76	1539.6	285.6	NaN	NaN	NaN	-847.22	1005.3	172.04	-859.96	1017.8	441.28	-921.58	916.98	115	-966.23	950.36	478.18	-1049.6	1009.1	233.85	-1060.3	1017	340.56	-1068.2	978.88	287.1	-725.33	567.7	166.45	-728.7	579.84	306.63	-1110.7	560.35	442.41	-1095.8	553.82	310.54	-572.95	129.47	181.17	-577.02	122.91	269.39	-1349.8	144.2	373.46	-1294.3	165.14	282.67	-854.53	742.65	134.16	-796.73	770.58	140.57	-762.5	708.32	157.82	-819.83	680.26	148.17	-1041.1	789.36	473.62	-976.13	768.63	480.45	-1003.5	697.87	469.15	-1068.7	722.04	458.55	-706.83	466.28	184.58	-649.69	493.96	191.04	-629	448.86	198.6	-681.13	425.08	181.57	-1234.2	407.21	437.26	-1170.8	385.44	429.5	-1201.8	319.36	413.73	-1266	341.26	419.65	-586.94	36.38	182.94	-615.45	52.276	214.29	-595.39	31.702	249.95	-1429	129.47	337.84	-1414.1	161.68	309.05	-1405.4	132.39	278	-400.39	136.8	293.56	-412.3	130.45	182.55	-364.55	173.62	264.88	-1212.5	52.412	298.59	-1244	39.545	405.56	-1170.9	42.67	343.08
5	0.01672	-868.86	1482	484.31	-909.81	1501.5	75.839	-872.72	1820.5	295.95	-814.28	1463	280.72	-952.24	1539.2	284.84	NaN	NaN	NaN	-840.75	1004.8	171.8	-854.02	1017.4	441.01	-915.37	916.27	114.78	-960.42	950	477.72	-1043.2	1008.7	233.24	-1054	1016.6	339.95	-1062	978.47	286.47	-721.62	566.14	166.47	-725.11	578.27	306.63	-1105.1	560.1	442.22	-1089.6	553.2	310.46	-571.07	128.11	181.23	-575.35	121.64	269.6	-1347.9	145.94	373.55	-1292	166.39	282.97	-849.53	741.29	133.94	-791.63	768.94	140.32	-757.86	706.47	157.66	-815.34	678.87	148.15	-1035.4	789.12	473	-970.45	768.33	480.09	-997.86	697.57	468.85	-1063	721.75	457.98	-703.57	464.64	184.61	-646.33	492.08	191.13	-625.83	446.9	198.7	-678.05	423.32	181.62	-1229.8	408.05	437.1	-1166.6	385.63	429.53	-1198.2	319.85	413.83	-1262.2	342.39	419.53	-586.06	35.458	183.08	-614.29	51.8	214.42	-594.59	31.054	250.1	-1427.1	132.44	337.69	-1411.9	164.47	308.92	-1403.3	135.05	277.86	-398.59	133.75	293.84	-410.45	127.44	182.85	-362.42	170.25	265.18	-1212.2	52.341	298.55	-1243.8	39.702	405.67	-1170.8	42.615	343.03
6	0.0209	-863.07	1481.8	483.53	-904.05	1501.1	75.1	-867.07	1820.2	295.26	-808.5	1462.8	280.03	-946.61	1538.7	284.06	NaN	NaN	NaN	-834.12	1004.2	171.54	-847.92	1017	440.72	-909.02	915.59	114.53	-954.45	949.64	477.24	-1036.8	1008.2	232.61	-1047.6	1016.2	339.33	-1055.6	978.08	285.82	-717.78	564.63	166.49	-721.42	576.75	306.62	-1099.3	559.84	442.04	-1083.2	552.54	310.39	-569.17	126.78	181.26	-573.69	120.39	269.8	-1345.9	147.75	373.66	-1289.6	167.67	283.3	-844.43	739.97	133.71	-786.38	767.34	140.06	-753.08	704.65	157.5	-810.71	677.51	148.12	-1029.6	788.87	472.36	-964.6	768.04	479.72	-992.01	697.27	468.55	-1057.1	721.45	457.42	-700.22	463.06	184.62	-642.87	490.25	191.22	-622.58	444.97	198.81	-674.88	421.62	181.66	-1225.2	408.91	436.97	-1162.3	385.82	429.58	-1194.5	320.36	413.97	-1258.3	343.54	419.43	-585.19	34.578	183.21	-613.11	51.378	214.52	-593.8	30.457	250.21	-1425.1	135.54	337.56	-1409.5	167.36	308.82	-1401	137.81	277.74	-396.8	130.67	294.11	-408.59	124.42	183.16	-360.29	166.85	265.5	-1211.9	52.269	298.5	-1243.7	39.876	405.79	-1170.8	42.561	342.98
7	0.02508	-857.21	1481.7	482.73	-898.18	1500.6	74.336	-861.31	1819.9	294.55	-802.62	1462.5	279.33	-940.87	1538.3	283.25	NaN	NaN	NaN	-827.36	1003.7	171.28	-841.69	1016.5	440.41	-902.53	914.94	114.27	-948.34	949.28	476.74	-1030.2	1007.9	231.96	-1041.1	1015.8	338.69	-1049.2	977.71	285.16	-713.83	563.22	166.5	-717.64	575.31	306.6	-1093.4	559.56	441.9	-1076.6	551.85	310.35	-567.27	125.49	181.26	-572.05	119.18	269.96	-1343.8	149.61	373.81	-1287	168.98	283.67	-839.25	738.74	133.48	-781	765.79	139.8	-748.17	702.89	157.32	-805.96	676.21	148.07	-1023.5	788.61	471.73	-958.6	767.73	479.36	-986.01	696.96	468.26	-1051	721.13	456.86	-696.78	461.56	184.63	-639.32	488.48	191.3	-619.25	443.11	198.91	-671.64	419.99	181.69	-1220.4	409.78	436.87	-1157.8	386.01	429.68	-1190.7	320.88	414.14	-1254.2	344.72	419.36	-584.35	33.752	183.3	-611.93	51.015	214.6	-593.04	29.921	250.31	-1423	138.76	337.45	-1406.9	170.35	308.76	-1398.6	140.68	277.65	-395.03	127.59	294.38	-406.75	121.4	183.45	-358.18	163.45	265.82	-1211.5	52.197	298.46	-1243.5	40.069	405.92	-1170.7	42.508	342.93
8	0.02926	-851.3	1481.6	481.92	-892.22	1500.2	73.55	-855.47	1819.6	293.83	-796.66	1462.4	278.61	-935.06	1537.9	282.41	NaN	NaN	NaN	-820.52	1003.1	170.99	-835.34	1016.1	440.09	-895.96	914.34	113.98	-942.1	948.91	476.24	-1023.5	1007.5	231.3	-1034.5	1015.4	338.05	-1042.6	977.37	284.49	-709.78	561.9	166.5	-713.77	573.95	306.56	-1087.2	559.26	441.79	-1069.9	551.12	310.34	-565.38	124.26	181.23	-570.44	118.02	270.11	-1341.6	151.52	373.99	-1284.3	170.32	284.08	-833.99	737.6	133.26	-775.52	764.33	139.52	-743.15	701.21	157.13	-801.11	674.98	148	-1017.4	788.33	471.09	-952.44	767.43	478.99	-979.85	696.64	467.99	-1044.8	720.8	456.32	-693.27	460.17	184.62	-635.69	486.79	191.38	-615.85	441.33	199	-668.33	418.46	181.71	-1215.5	410.65	436.8	-1153.1	386.19	429.81	-1186.6	321.41	414.35	-1249.9	345.92	419.34	-583.52	32.988	183.37	-610.77	50.718	214.64	-592.3	29.45	250.37	-1420.8	142.09	337.37	-1404.2	173.42	308.74	-1396.1	143.65	277.58	-393.3	124.52	294.65	-404.94	118.41	183.75	-356.1	160.05	266.14	-1211.1	52.129	298.42	-1243.4	40.285	406.06	-1170.7	42.456	342.89
9	0.03344	-845.36	1481.5	481.11	-886.19	1499.8	72.744	-849.57	1819.4	293.1	-790.63	1462.2	277.88	-929.2	1537.5	281.55	NaN	NaN	NaN	-813.6	1002.6	170.7	-828.9	1015.6	439.75	-889.32	913.79	113.67	-935.77	948.55	475.73	-1016.7	1007.2	230.63	-1027.8	1015	337.41	-1035.9	977.05	283.81	-705.62	560.71	166.48	-709.81	572.7	306.5	-1080.9	558.93	441.72	-1062.9	550.37	310.36	-563.51	123.08	181.18	-568.87	116.9	270.23	-1339.2	153.48	374.21	-1281.5	171.69	284.53	-828.66	736.57	133.03	-769.95	762.96	139.22	-738.02	699.64	156.91	-796.16	673.84	147.91	-1011.1	788.04	470.46	-946.16	767.13	478.62	-973.56	696.32	467.73	-1038.5	720.45	455.79	-689.68	458.89	184.59	-631.98	485.2	191.45	-612.39	439.64	199.08	-664.96	417.03	181.71	-1210.4	411.52	436.78	-1148.3	386.36	429.99	-1182.5	321.94	414.61	-1245.5	347.13	419.36	-582.72	32.293	183.41	-609.61	50.489	214.67	-591.59	29.048	250.42	-1418.4	145.54	337.33	-1401.4	176.58	308.77	-1393.5	146.73	277.55	-391.62	121.49	294.91	-403.16	115.46	184.03	-354.06	156.67	266.46	-1210.7	52.068	298.38	-1243.2	40.528	406.21	-1170.7	42.405	342.84
